<svg width="114" height="32" viewBox="0 0 114 32" fill="none" xmlns="http://www.w3.org/2000/svg">
<path d="M5.33333 10.6667C8.27885 10.6667 10.6667 8.27885 10.6667 5.33333C10.6667 2.38781 8.27885 0 5.33333 0C2.38781 0 0 2.38781 0 5.33333C0 8.27885 2.38781 10.6667 5.33333 10.6667Z" fill="white"/>
<path d="M15.9998 21.3334C18.9454 21.3334 21.3332 18.9456 21.3332 16.0001C21.3332 13.0546 18.9454 10.6667 15.9998 10.6667C13.0543 10.6667 10.6665 13.0546 10.6665 16.0001C10.6665 18.9456 13.0543 21.3334 15.9998 21.3334Z" fill="white"/>
<path d="M5.33333 31.9999C8.27885 31.9999 10.6667 29.6121 10.6667 26.6666C10.6667 23.7211 8.27885 21.3333 5.33333 21.3333C2.38781 21.3333 0 23.7211 0 26.6666C0 29.6121 2.38781 31.9999 5.33333 31.9999Z" fill="white"/>
<path d="M26.6668 10.6667C29.6123 10.6667 32.0002 8.27885 32.0002 5.33333C32.0002 2.38781 29.6123 0 26.6668 0C23.7213 0 21.3335 2.38781 21.3335 5.33333C21.3335 8.27885 23.7213 10.6667 26.6668 10.6667Z" fill="white"/>
<path d="M26.6668 31.9999C29.6123 31.9999 32.0002 29.6121 32.0002 26.6666C32.0002 23.7211 29.6123 21.3333 26.6668 21.3333C23.7213 21.3333 21.3335 23.7211 21.3335 26.6666C21.3335 29.6121 23.7213 31.9999 26.6668 31.9999Z" fill="white"/>
<path d="M51.0712 9.83675C51.0712 12.4112 49.4616 14.0209 46.8824 14.0209C44.3032 14.0209 42.6982 12.4112 42.6982 9.83675V2.74865L42.8583 2.58862H43.5031L43.6631 2.74865V9.83675C43.6631 11.9265 44.9527 13.2161 46.8824 13.2161C48.9768 13.2161 50.1064 11.9265 50.1064 9.83675V2.74865L50.2664 2.58862H50.9112L51.0712 2.74865V9.83675Z" fill="white"/>
<path d="M62.1832 13.861H61.8584L61.5384 13.7009L57.8343 8.86727H57.6743L53.9702 13.7009L53.6502 13.861H53.3348L53.1748 13.7009V13.2303L57.1989 8.07657V7.91655L53.4948 3.24762V2.77697L53.6596 2.61694H53.9796L54.2997 2.77697L57.6837 7.12584H57.8437L61.2278 2.77697L61.5478 2.61694H61.8679L62.0326 2.77697V3.24762L58.3285 7.91655V8.07657L62.3526 13.2303V13.7009L62.1832 13.861Z" fill="white"/>
<path d="M72.1617 13.8609H69.1024L68.9424 13.7008V2.74865L69.1024 2.58862H72.1617C76.1905 2.58862 77.4754 4.68305 77.4754 8.23651C77.4754 11.79 76.1952 13.8609 72.1617 13.8609ZM72.1617 3.39345H70.072L69.9072 3.55347V12.896L70.072 13.056H72.1617C75.3857 13.056 76.5106 11.4464 76.5106 8.2271C76.5153 5.16783 75.5504 3.39345 72.1617 3.39345Z" fill="white"/>
<path d="M80.059 10.1568L79.899 10.3169C79.899 11.2864 80.5438 13.2161 82.6335 13.2161C83.1358 13.2528 83.635 13.1116 84.0437 12.8173C84.4524 12.5231 84.7446 12.0944 84.8692 11.6065L85.0292 11.4464H85.674L85.834 11.6065C85.674 12.5478 84.8692 14.0209 82.6147 14.0209C80.0402 14.0209 78.9106 12.0913 78.9106 9.8368V9.51205C78.9106 7.2576 80.2002 5.64795 82.4547 5.64795C84.7091 5.64795 85.9987 7.2576 85.9987 9.51205V9.9827L85.834 10.1427L80.059 10.1568ZM85.048 9.21553C85.048 8.08595 84.4079 6.47631 82.4735 6.47631C80.5391 6.47631 79.899 8.08595 79.899 9.21553L80.059 9.37556H84.8692L85.048 9.21553Z" fill="white"/>
<path d="M90.3664 14.0209C88.432 14.0209 87.3071 12.8961 87.3071 11.4464L87.4672 11.2864H88.112L88.272 11.4464C88.272 12.3878 88.9168 13.2161 90.3664 13.2161C91.976 13.2161 92.4561 12.5713 92.4561 11.7665C92.4561 10.4816 91.6513 10.3169 90.0417 9.99682C88.432 9.67678 87.4672 9.03198 87.4672 7.74238C87.4672 6.6128 88.4085 5.64795 90.2064 5.64795C91.816 5.64795 93.1009 6.29275 93.1009 7.9024L92.9409 8.06242H92.2961L92.1361 7.9024C92.1361 7.09757 91.6654 6.45277 90.2064 6.45277C89.0768 6.45277 88.432 6.92343 88.432 7.74238C88.432 8.86725 89.3969 9.03198 91.0112 9.35202C92.6256 9.67207 93.4257 10.3169 93.4257 11.7665C93.4257 13.0561 92.4561 14.0209 90.3664 14.0209Z" fill="white"/>
<path d="M96.0001 4.523H95.3553L95.1953 4.36298V3.39342L95.3553 3.2334H96.0001L96.1602 3.39342V4.38651L96.0001 4.523ZM96.0001 13.8608H95.3553L95.1953 13.7008V5.97263L95.3553 5.8079H96.0001L96.1602 5.97263V13.7008L96.0001 13.8608Z" fill="white"/>
<path d="M103.893 12.7313C103.568 13.3761 102.764 14.0209 101.314 14.0209C99.0594 14.0209 97.9346 12.2513 97.9346 9.8368C97.9346 7.42233 99.0594 5.64795 101.314 5.64795C102.764 5.64795 103.568 6.29275 103.893 6.93755H104.053L104.213 5.9727L104.373 5.80797H104.844L105.004 5.9727V12.7313C105.004 15.9553 103.714 17.2402 101.625 17.2402C99.6901 17.2402 98.7253 16.2754 98.5653 14.9858L98.7253 14.8258H99.3701L99.5301 14.9858C99.6901 15.7906 100.175 16.4354 101.625 16.4354C103.554 16.4354 104.039 14.8258 104.039 12.7313H103.893ZM104.053 9.8368C104.053 7.58235 103.112 6.45277 101.479 6.45277C99.8454 6.45277 98.8994 7.58235 98.8994 9.8368C98.8994 12.0913 99.8643 13.2161 101.479 13.2161C103.093 13.2161 104.053 12.0913 104.053 9.8368Z" fill="white"/>
<path d="M113.716 13.8608H113.071L112.911 13.7008V8.8671C112.911 7.25745 112.106 6.45263 110.816 6.45263C109.047 6.45263 108.242 7.58221 108.242 9.35188V13.7008L108.077 13.8608H107.461L107.296 13.7008V5.97256L107.461 5.79841H107.931L108.091 5.96314L108.256 6.92799H108.402C108.684 6.50942 109.069 6.17074 109.52 5.94479C109.971 5.71884 110.473 5.61329 110.976 5.63839C112.751 5.63839 113.876 6.76797 113.876 8.85769V13.7008L113.716 13.8608Z" fill="white"/>
<path d="M43.5031 29.2465H42.8583L42.6982 29.0865V18.139L42.8583 17.979H43.5031L43.6631 18.139V29.0865L43.5031 29.2465Z" fill="white"/>
<path d="M52.6808 29.2467H52.036L51.876 29.0867V24.2577C51.876 22.6481 51.0711 21.8433 49.7815 21.8433C48.0119 21.8433 47.207 22.9681 47.207 24.7425V29.0867L47.047 29.2467H46.4022L46.2422 29.0867V21.3585L46.4022 21.1985H46.8729L47.0376 21.3585L47.1976 22.2998H47.3576C47.6395 21.8818 48.0247 21.5437 48.4758 21.3186C48.9269 21.0935 49.4286 20.9888 49.9321 21.0149C51.7065 21.0149 52.8314 22.1398 52.8314 24.2342V29.0867L52.6808 29.2467Z" fill="white"/>
<path d="M57.5144 29.4113C55.5799 29.4113 54.4551 28.2818 54.4551 26.8321L54.6151 26.6721H55.2599L55.4199 26.8321C55.4199 27.8017 56.0647 28.6065 57.5144 28.6065C59.124 28.6065 59.6041 27.9617 59.6041 27.1569C59.6041 25.8673 58.7992 25.7073 57.1896 25.3825C55.5799 25.0577 54.6151 24.4412 54.6151 23.1281C54.6151 22.0032 55.5799 21.0383 57.3496 21.0383C58.964 21.0383 60.2489 21.6831 60.2489 23.2928L60.0888 23.4528H59.4535L59.2934 23.2928C59.2934 22.488 58.8228 21.8432 57.359 21.8432C56.2342 21.8432 55.5894 22.3138 55.5894 23.1281C55.5894 24.2576 56.5307 24.4177 58.1639 24.7424C59.797 25.0672 60.583 25.6837 60.583 27.1569C60.5736 28.4418 59.6041 29.4113 57.5144 29.4113Z" fill="white"/>
<path d="M66.3724 29.2466H65.2428C64.1179 29.2466 63.3131 28.6065 63.3131 27.477V22.1632L63.1484 22.0032H61.8635L61.6987 21.8432V21.3725L61.8635 21.2125H63.1484L63.3131 21.0525V19.5887L63.4731 19.4287H64.1179L64.2779 19.5887V21.0384L64.438 21.1984H66.3724L66.5324 21.3584V21.8291L66.3724 21.9891H64.438L64.2779 22.1491V27.477C64.263 27.6062 64.2779 27.7372 64.3215 27.8599C64.3651 27.9825 64.4361 28.0936 64.5293 28.1844C64.6225 28.2753 64.7352 28.3437 64.8589 28.3842C64.9826 28.4247 65.1139 28.4364 65.2428 28.4183H66.3724L66.5324 28.583V29.0537L66.3724 29.2466Z" fill="white"/>
<path d="M69.2667 19.9183H68.6266L68.4619 19.7583V18.817L68.6266 18.657H69.2667L69.4315 18.817V19.7583L69.2667 19.9183ZM69.2667 29.2562H68.6266L68.4619 29.0962V21.3586L68.6266 21.1985H69.2667L69.4315 21.3586V29.0868L69.2667 29.2562Z" fill="white"/>
<path d="M75.7101 29.2466H74.5806C73.4557 29.2466 72.6509 28.6065 72.6509 27.477V22.1632L72.4909 22.0032H71.2201L71.0601 21.8432V21.3725L71.2201 21.2125H72.5097L72.6697 21.0525V19.5887L72.8297 19.4287H73.4745L73.6346 19.5887V21.0384L73.7946 21.1984H75.729L75.889 21.3584V21.8291L75.729 21.9891H73.7946L73.6346 22.1491V27.477C73.6203 27.604 73.6349 27.7327 73.6772 27.8533C73.7195 27.974 73.7884 28.0836 73.8788 28.174C73.9692 28.2645 74.0788 28.3334 74.1995 28.3756C74.3202 28.4179 74.4488 28.4325 74.5759 28.4183H75.7054L75.8655 28.583V29.0537L75.7101 29.2466Z" fill="white"/>
<path d="M77.8095 21.1985H78.4543L78.6143 21.3585V26.3522C78.6143 27.9618 79.4191 28.6066 80.544 28.6066C82.3184 28.6066 83.1232 27.4771 83.1232 25.7074V21.3585L83.2832 21.1985H83.928L84.088 21.3585V29.0867L83.928 29.2467H83.4574L83.2973 29.0867L83.1373 28.1454H82.9773C82.6949 28.5643 82.3091 28.9032 81.8572 29.1292C81.4053 29.3551 80.9027 29.4605 80.3981 29.435C78.7884 29.435 77.6636 28.4654 77.6636 26.3757V21.3585L77.8095 21.1985Z" fill="white"/>
<path d="M90.3665 29.2466H89.2369C88.112 29.2466 87.3072 28.6065 87.3072 27.477V22.1632L87.1425 22.0032H85.8576L85.6929 21.8432V21.3725L85.8576 21.2125H87.1425L87.3072 21.0525V19.5887L87.4672 19.4287H88.112L88.2721 19.5887V21.0384L88.4321 21.1984H90.3665L90.5265 21.3584V21.8291L90.3665 21.9891H88.4321L88.2721 22.1491V27.477C88.2571 27.6062 88.272 27.7372 88.3156 27.8599C88.3592 27.9825 88.4303 28.0936 88.5234 28.1844C88.6166 28.2753 88.7293 28.3437 88.853 28.3842C88.9767 28.4247 89.108 28.4364 89.2369 28.4183H90.3665L90.5265 28.583V29.0537L90.3665 29.2466Z" fill="white"/>
<path d="M92.7809 25.5661L92.6209 25.7261C92.6209 26.6674 93.261 28.6254 95.3554 28.6254C95.8659 28.6648 96.3737 28.5205 96.7872 28.2184C97.2006 27.9164 97.4924 27.4764 97.6099 26.9781L97.7699 26.8133H98.4147L98.5747 26.9781C98.4147 27.9194 97.6099 29.3925 95.3554 29.3925C92.7809 29.3925 91.6514 27.4581 91.6514 25.2037V24.8836C91.6514 22.6292 92.941 21.0195 95.1954 21.0195C97.4499 21.0195 98.7395 22.6292 98.7395 24.8836V25.3543L98.5747 25.519L92.7809 25.5661ZM97.7699 24.5965C97.7699 23.4717 97.1298 21.862 95.1954 21.862C93.261 21.862 92.6209 23.4717 92.6209 24.5965L92.7809 24.7613H97.6099L97.7699 24.5965Z" fill="white"/>
</svg>
